<svg width="263" height="81" viewBox="0 0 263 81" fill="none" xmlns="http://www.w3.org/2000/svg">
<path d="M262.298 29.4434C262.72 34.5264 259.624 39.7642 253.407 44.8969C247.205 50.0181 237.991 54.9513 226.426 59.4202C203.301 68.3554 170.885 75.3924 134.662 78.3987C98.4393 81.405 65.3065 79.8084 41.0254 74.8076C28.8815 72.3064 18.9807 68.9596 12.0187 64.931C5.04125 60.8934 1.12361 56.2377 0.701744 51.1547C0.279876 46.0716 3.37639 40.8338 9.5928 35.7012C15.7954 30.58 25.0089 25.6467 36.5744 21.1778C59.6988 12.2426 92.1151 5.20562 128.338 2.1993C164.561 -0.807023 197.694 0.789652 221.975 5.79048C234.119 8.29158 244.019 11.6384 250.981 15.667C257.959 19.7046 261.876 24.3603 262.298 29.4434Z" stroke="white"/>
</svg>
